<?xml version="1.0" encoding="utf-8"?>
<!-- Generator: Adobe Illustrator 21.0.2, SVG Export Plug-In . SVG Version: 6.00 Build 0)  -->
<svg version="1.1" id="Layer_1" xmlns="http://www.w3.org/2000/svg" xmlns:xlink="http://www.w3.org/1999/xlink" x="0px" y="0px"
	 viewBox="0 0 864 864" style="enable-background:new 0 0 864 864;" xml:space="preserve">
<style type="text/css">
	.st0{fill:url(#SVGID_1_);}
	.st1{fill:#FFFFFF;}
	.st2{fill:#F7953C;}
</style>
<g>
	<g>
		<linearGradient id="SVGID_1_" gradientUnits="userSpaceOnUse" x1="109.0345" y1="425.1129" x2="381.3648" y2="425.1129">
			<stop  offset="0" style="stop-color:#FCDF78"/>
			<stop  offset="0.193" style="stop-color:#FFCB58"/>
			<stop  offset="0.4926" style="stop-color:#FDB73F"/>
			<stop  offset="0.9922" style="stop-color:#F78D2D"/>
		</linearGradient>
		<path class="st0" d="M298.5,336.8c46.2,3,82.8,41.4,82.8,88.4s-36.6,85.4-82.8,88.4c36-13.2,61.6-47.8,61.6-88.4
			S334.5,350,298.5,336.8z M347.1,425.1c0-40.6-25.7-75.1-61.6-88.4c-10-3.7-20.9-5.7-32.2-5.7c39.7,12.9,68.4,50.1,68.4,94.1
			s-28.7,81.2-68.4,94.1c11.3,0,22.2-2.1,32.2-5.7C321.5,500.2,347.1,465.7,347.1,425.1z M306.9,425.1c0-44-28.7-81.2-68.4-94.1
			c-9.6-3.1-19.9-4.8-30.5-4.8c-54.6,0-98.9,44.3-98.9,98.9S153.3,524,208,524c10.7,0,20.9-1.7,30.5-4.8
			C278.2,506.3,306.9,469.1,306.9,425.1z"/>
		<path class="st1" d="M245.5,382.5c-4.2-3.2-9.3-6.3-16.4-8.2l4.1-13.8c1-3.4-0.9-7.1-4.4-8.1c-3.4-1-7.1,0.9-8.1,4.4l-4.7,15.7
			c-0.7,0-1.5,0-2.3,0c-21.9,0-39.3,12.9-39.3,32.1c0,13.5,9.6,20.5,24,26.5l-8.8,29.5c-6.5-1.6-11.8-4.9-17.5-10.3
			c-1.3-1.2-3.5-2.3-6-2.3c-5.1,0-8.8,3.9-8.8,9.1c0,3.1,1.6,5.8,3.5,7.4c6.7,6.3,15.2,10,24.1,11.8l-4.3,14.4
			c-1,3.4,0.9,7.1,4.4,8.1c0.6,0.2,1.3,0.3,1.9,0.3c2.8,0,5.4-1.8,6.2-4.6l5-16.8c0.2,0,0.5,0,0.7,0c21.6,0,39.9-12.7,39.9-32.7
			c0-13.5-8.7-20.5-22.9-26.4l8.4-28.1c4,1.4,7.6,3.6,11.3,6.7c1.3,1.3,3.2,1.9,5.3,1.9c4.8,0,8.8-3.8,8.8-8.8
			C249.6,386.5,247.8,384.3,245.5,382.5z M193.5,401.8c0-6.6,6.6-13,17.8-13.4l-7.5,24.9C196.3,409.7,193.5,406.7,193.5,401.8z
			 M219.6,447.5c0,7.7-6.9,13.1-16.7,14l7.5-25.2C217.4,439.9,219.6,443.1,219.6,447.5z"/>
	</g>
	<path class="st2" d="M417.7,476.5h10.1c1.9,0,3.4-1.5,3.4-3.4v-95.3c0-1.9-1.5-3.4-3.4-3.4h-10.1c-1.9,0-3.4-1.5-3.4-3.4v-12.9
		c0-1.9,1.5-3.4,3.4-3.4h64.2c8.4,0,16.9,0.6,23.9,3.6c15.3,6.4,25.3,22.1,25.3,41.8c0,20.1-10.5,37.2-26.8,43
		c-6.6,2.2-13.7,2.8-21.7,2.8h-21.9c-1.9,0-3.4,1.5-3.4,3.4v23.9c0,1.9,1.5,3.4,3.4,3.4H471c1.9,0,3.4,1.5,3.4,3.4v12.7
		c0,1.9-1.5,3.4-3.4,3.4h-53.3c-1.9,0-3.4-1.5-3.4-3.4v-12.7C414.3,478.1,415.8,476.5,417.7,476.5z M479.1,425
		c6,0,10.3-0.8,14.3-2.8c7.6-3.8,11.5-11.7,11.5-22.1c0-9.7-3.8-17.3-10.3-21.1c-4-2.4-9-3.4-15.3-3.4h-18.7c-1.9,0-3.4,1.5-3.4,3.4
		v42.6c0,1.9,1.5,3.4,3.4,3.4H479.1z M593.5,433.4h3c1.9,0,3.4-1.5,3.4-3.4l0,0c0-12.9-8.2-17.5-18.7-17.5c-10.8,0-20.8,5-25.7,7.8
		c-1.7,1-3.8,0.4-4.7-1.3l-6.2-11.6c-0.8-1.6-0.3-3.5,1.1-4.4c5.4-3.5,19-10.7,37.6-10.7c27.2,0,41.8,14.1,41.8,40v40.6
		c0,3,1.6,4.4,4.4,4.4h5.8c1.9,0,3.4,1.5,3.4,3.4v12.1c0,1.9-1.5,3.4-3.4,3.4h-20.5c-9.3,0-12.9-5-12.9-10.7v-1.2
		c0-3.2,0.6-5.2,0.6-5.2H602c0,0-8.6,19.5-32,19.5c-17.3,0-33.6-10.1-33.6-30.8C536.4,436.6,577.2,433.4,593.5,433.4z M576.6,479.5
		c13.7,0,23.5-14.7,23.5-27.4l0,0c0-1.9-1.5-3.4-3.4-3.4h-0.8c-9.9,0-34,1.6-34,16.9C561.8,473.2,567.2,479.5,576.6,479.5z
		 M664.7,517.1c8.2,0,14.7-4.4,17.9-11.7l2.2-5.1c0.4-0.8,0.4-1.8,0-2.6l-33.4-82.1c-0.5-1.3-1.8-2.1-3.1-2.1h-6.5
		c-1.9,0-3.4-1.5-3.4-3.4V398c0-1.9,1.5-3.4,3.4-3.4H685c1.9,0,3.4,1.5,3.4,3.4v12.1c0,1.9-1.5,3.4-3.4,3.4h-3.7
		c-2.3,0-4,2.3-3.2,4.5l16.9,46.8c1.8,5,2.2,10.5,2.2,10.5h0.6c0,0,0.8-5.6,2.8-10.5l16.7-46.8c0.8-2.2-0.8-4.5-3.2-4.5h-3.6
		c-1.9,0-3.4-1.5-3.4-3.4V398c0-1.9,1.5-3.4,3.4-3.4h41.2c1.9,0,3.4,1.5,3.4,3.4v12.1c0,1.9-1.5,3.4-3.4,3.4h-5.8
		c-1.4,0-2.6,0.9-3.1,2.2L706,509.2c-7.8,20.1-22.9,28.6-40.2,28.6c-10.1,0-18-3.3-21.9-5.4c-1.6-0.8-2.3-2.7-1.5-4.4l5.4-12.2
		c0.8-1.8,2.9-2.5,4.6-1.6C655.1,515.6,659.3,517.1,664.7,517.1z"/>
</g>
</svg>
