<?xml version="1.0" encoding="UTF-8"?>
<svg width="647px" height="212px" viewBox="0 0 647 212" version="1.1" xmlns="http://www.w3.org/2000/svg" xmlns:xlink="http://www.w3.org/1999/xlink">
    <!-- Generator: Sketch 60.1 (88133) - https://sketch.com -->
    <title>17-6PayLogo</title>
    <desc>Created with Sketch.</desc>
    <defs>
        <linearGradient x1="-0.0240631888%" y1="50.0065217%" x2="100.023806%" y2="50.0065217%" id="linearGradient-1">
            <stop stop-color="#FCDF78" offset="0%"></stop>
            <stop stop-color="#FFCB58" offset="19.3%"></stop>
            <stop stop-color="#FDB73F" offset="49.26%"></stop>
            <stop stop-color="#F78D2D" offset="99.22%"></stop>
        </linearGradient>
    </defs>
    <g id="Page-1" stroke="none" stroke-width="1" fill="none" fill-rule="evenodd">
        <g id="17-6PayLogo" fill-rule="nonzero">
            <g id="Group">
                <path d="M189.5,10.8 C235.7,13.8 272.3,52.2 272.3,99.2 C272.3,146.2 235.7,184.6 189.5,187.6 C225.5,174.4 251.1,139.8 251.1,99.2 C251.1,58.6 225.5,24 189.5,10.8 Z M238.1,99.1 C238.1,58.5 212.4,24 176.5,10.7 C166.5,7 155.6,5 144.3,5 C184,17.9 212.7,55.1 212.7,99.1 C212.7,143.1 184,180.3 144.3,193.2 C155.6,193.2 166.5,191.1 176.5,187.5 C212.5,174.2 238.1,139.7 238.1,99.1 Z M197.9,99.1 C197.9,55.1 169.2,17.9 129.5,5 C119.9,1.9 109.6,0.2 99,0.2 C44.4,0.2 0.1,44.5 0.1,99.1 C0.1,153.7 44.3,198 99,198 C109.7,198 119.9,196.3 129.5,193.2 C169.2,180.3 197.9,143.1 197.9,99.1 Z" id="Shape" fill="url(#linearGradient-1)"></path>
                <path d="M136.5,56.5 C132.3,53.3 127.2,50.2 120.1,48.3 L124.2,34.5 C125.2,31.1 123.3,27.4 119.8,26.4 C116.4,25.4 112.7,27.3 111.7,30.8 L107,46.5 C106.3,46.5 105.5,46.5 104.7,46.5 C82.8,46.5 65.4,59.4 65.4,78.6 C65.4,92.1 75,99.1 89.4,105.1 L80.6,134.6 C74.1,133 68.8,129.7 63.1,124.3 C61.8,123.1 59.6,122 57.1,122 C52,122 48.3,125.9 48.3,131.1 C48.3,134.2 49.9,136.9 51.8,138.5 C58.5,144.8 67,148.5 75.9,150.3 L71.6,164.7 C70.6,168.1 72.5,171.8 76,172.8 C76.6,173 77.3,173.1 77.9,173.1 C80.7,173.1 83.3,171.3 84.1,168.5 L89.1,151.7 C89.3,151.7 89.6,151.7 89.8,151.7 C111.4,151.7 129.7,139 129.7,119 C129.7,105.5 121,98.5 106.8,92.6 L115.2,64.5 C119.2,65.9 122.8,68.1 126.5,71.2 C127.8,72.5 129.7,73.1 131.8,73.1 C136.6,73.1 140.6,69.3 140.6,64.3 C140.6,60.5 138.8,58.3 136.5,56.5 Z M84.5,75.8 C84.5,69.2 91.1,62.8 102.3,62.4 L94.8,87.3 C87.3,83.7 84.5,80.7 84.5,75.8 Z M110.6,121.5 C110.6,129.2 103.7,134.6 93.9,135.5 L101.4,110.3 C108.4,113.9 110.6,117.1 110.6,121.5 Z" id="Shape" fill="#FFFFFF"></path>
            </g>
            <path d="M308.7,150.5 L318.8,150.5 C320.7,150.5 322.2,149 322.2,147.1 L322.2,51.8 C322.2,49.9 320.7,48.4 318.8,48.4 L308.7,48.4 C306.8,48.4 305.3,46.9 305.3,45 L305.3,32.1 C305.3,30.2 306.8,28.7 308.7,28.7 L372.9,28.7 C381.3,28.7 389.8,29.3 396.8,32.3 C412.1,38.7 422.1,54.4 422.1,74.1 C422.1,94.2 411.6,111.3 395.3,117.1 C388.7,119.3 381.6,119.9 373.6,119.9 L351.7,119.9 C349.8,119.9 348.3,121.4 348.3,123.3 L348.3,147.2 C348.3,149.1 349.8,150.6 351.7,150.6 L362,150.6 C363.9,150.6 365.4,152.1 365.4,154 L365.4,166.7 C365.4,168.6 363.9,170.1 362,170.1 L308.7,170.1 C306.8,170.1 305.3,168.6 305.3,166.7 L305.3,154 C305.3,152.1 306.8,150.5 308.7,150.5 Z M370.1,99 C376.1,99 380.4,98.2 384.4,96.2 C392,92.4 395.9,84.5 395.9,74.1 C395.9,64.4 392.1,56.8 385.6,53 C381.6,50.6 376.6,49.6 370.3,49.6 L351.6,49.6 C349.7,49.6 348.2,51.1 348.2,53 L348.2,95.6 C348.2,97.5 349.7,99 351.6,99 L370.1,99 L370.1,99 Z M484.5,107.4 L487.5,107.4 C489.4,107.4 490.9,105.9 490.9,104 L490.9,104 C490.9,91.1 482.7,86.5 472.2,86.5 C461.4,86.5 451.4,91.5 446.5,94.3 C444.8,95.3 442.7,94.7 441.8,93 L435.6,81.4 C434.8,79.8 435.3,77.9 436.7,77 C442.1,73.5 455.7,66.3 474.3,66.3 C501.5,66.3 516.1,80.4 516.1,106.3 L516.1,146.9 C516.1,149.9 517.7,151.3 520.5,151.3 L526.3,151.3 C528.2,151.3 529.7,152.8 529.7,154.7 L529.7,166.8 C529.7,168.7 528.2,170.2 526.3,170.2 L505.8,170.2 C496.5,170.2 492.9,165.2 492.9,159.5 L492.9,158.3 C492.9,155.1 493.5,153.1 493.5,153.1 L493,153.1 C493,153.1 484.4,172.6 461,172.6 C443.7,172.6 427.4,162.5 427.4,141.8 C427.4,110.6 468.2,107.4 484.5,107.4 Z M467.6,153.5 C481.3,153.5 491.1,138.8 491.1,126.1 L491.1,126.1 C491.1,124.2 489.6,122.7 487.7,122.7 L486.9,122.7 C477,122.7 452.9,124.3 452.9,139.6 C452.8,147.2 458.2,153.5 467.6,153.5 Z M555.7,191.1 C563.9,191.1 570.4,186.7 573.6,179.4 L575.8,174.3 C576.2,173.5 576.2,172.5 575.8,171.7 L542.4,89.6 C541.9,88.3 540.6,87.5 539.3,87.5 L532.8,87.5 C530.9,87.5 529.4,86 529.4,84.1 L529.4,72 C529.4,70.1 530.9,68.6 532.8,68.6 L576,68.6 C577.9,68.6 579.4,70.1 579.4,72 L579.4,84.1 C579.4,86 577.9,87.5 576,87.5 L572.3,87.5 C570,87.5 568.3,89.8 569.1,92 L586,138.8 C587.8,143.8 588.2,149.3 588.2,149.3 L588.8,149.3 C588.8,149.3 589.6,143.7 591.6,138.8 L608.3,92 C609.1,89.8 607.5,87.5 605.1,87.5 L601.5,87.5 C599.6,87.5 598.1,86 598.1,84.1 L598.1,72 C598.1,70.1 599.6,68.6 601.5,68.6 L642.7,68.6 C644.6,68.6 646.1,70.1 646.1,72 L646.1,84.1 C646.1,86 644.6,87.5 642.7,87.5 L636.9,87.5 C635.5,87.5 634.3,88.4 633.8,89.7 L597,183.2 C589.2,203.3 574.1,211.8 556.8,211.8 C546.7,211.8 538.8,208.5 534.9,206.4 C533.3,205.6 532.6,203.7 533.4,202 L538.8,189.8 C539.6,188 541.7,187.3 543.4,188.2 C546.1,189.6 550.3,191.1 555.7,191.1 Z" id="Shape" fill="#F7953C"></path>
        </g>
    </g>
</svg>